<svg width="512" height="512" viewBox="0 0 512 512" fill="none" xmlns="http://www.w3.org/2000/svg">
<path fill-rule="evenodd" clip-rule="evenodd" d="M412 0H100C44.77 0 0 44.77 0 100V412C0 467.23 44.77 512 100 512H412C467.23 512 512 467.23 512 412V100C512 44.77 467.23 0 412 0ZM274.06 321.77C274.06 331.78 265.72 340.13 255.47 340.13C245.22 340.13 237.35 331.79 237.35 321.77V251.47L199.71 322.49C196.37 328.91 190.65 332.74 184.23 332.74C177.81 332.74 172.32 329.17 168.98 322.49L131.09 251.47V321.77C131.09 331.78 122.98 340.13 113.22 340.13C102.98 340.13 94.63 331.79 94.63 321.77V188.8C94.63 177.6 103.21 171.88 111.06 171.88C118.45 171.88 125.36 177.6 128.93 183.79L184.23 282.2L239.51 183.79C243.08 177.6 250.24 171.88 257.61 171.88C265.49 171.88 274.06 177.6 274.06 188.8V321.77ZM356.14 341.08C338.02 341.08 318.96 334.17 306.56 320.59C303.94 317.49 298.93 311.04 298.93 302.95C298.93 295.56 303.7 287.93 313.46 287.93C321.34 287.93 326.58 292.94 330.38 297.94C338.72 307.23 348.97 309.37 355.88 309.37C365.89 309.37 380.68 305.8 380.68 290.78C380.68 280.07 374.01 274.35 355.88 267.2L347.3 264.1C322.52 254.57 303.93 242.89 303.93 217.86C303.93 188.79 328.24 170.92 358.51 170.92C379 170.92 391.15 177.83 400.93 187.61C406.17 193.57 408.79 198.09 408.79 203.56C408.79 211.44 402.35 217.63 394 217.63C388.76 217.63 383.29 214.53 379.95 210.96C373.28 205 368.75 202.38 359.93 202.38C346.83 202.38 339.92 209.29 339.92 218.35C339.92 224.54 342.54 231.45 356.35 236.71L364.21 239.56C403.54 254.09 417.36 268.63 417.36 290.79C417.36 324.63 383.75 341.08 356.12 341.08H356.14Z" fill="white"/>
</svg>
